<?xml version="1.0" standalone="no"?>
<!DOCTYPE svg PUBLIC "-//W3C//DTD SVG 20010904//EN"
 "http://www.w3.org/TR/2001/REC-SVG-20010904/DTD/svg10.dtd">
<svg version="1.0" xmlns="http://www.w3.org/2000/svg"
 width="565.000000pt" height="422.000000pt" viewBox="0 0 565.000000 422.000000"
 preserveAspectRatio="xMidYMid meet">

<g transform="translate(0.000000,422.000000) scale(0.100000,-0.100000)"
fill="#000000" stroke="none">
<path d="M2280 2749 c-266 -390 -426 -632 -428 -650 l-3 -29 378 -2 378 -3 3
-402 2 -403 75 0 75 0 2 403 3 402 143 3 142 3 0 59 0 60 -145 0 -145 0 0 590
0 590 -27 0 c-26 0 -65 -54 -453 -621z"/>
<path d="M3832 3360 c-133 -24 -228 -76 -321 -175 -102 -109 -146 -230 -145
-400 0 -173 56 -300 182 -417 115 -105 259 -155 427 -145 111 7 202 34 324 98
52 27 95 48 97 47 7 -9 -54 -186 -91 -262 -133 -278 -353 -515 -761 -823 l-29
-22 96 0 97 -1 78 56 c192 137 410 350 526 512 72 101 154 252 194 359 84 222
103 506 48 717 -56 215 -219 387 -420 440 -73 20 -232 28 -302 16z"/>
<path d="M1310 2300 l0 -1041 78 3 77 3 -1 1035 -1 1035 -76 3 -77 3 0 -1041z"/>
<path d="M1602 988 c1 -68 3 -104 5 -80 4 37 7 42 28 42 17 0 30 -11 46 -40
13 -22 26 -40 31 -40 5 0 -2 18 -14 40 -21 37 -21 42 -7 53 20 15 39 51 39 72
0 31 -55 75 -94 75 l-36 0 2 -122z m92 86 c9 -8 16 -31 16 -49 0 -39 -20 -55
-69 -55 l-31 0 0 60 0 60 34 0 c19 0 42 -7 50 -16z"/>
<path d="M1919 1087 c-43 -29 -62 -81 -48 -130 10 -37 59 -87 85 -87 11 0 13
-6 8 -22 -6 -22 -6 -23 13 -5 20 17 22 17 57 0 34 -16 37 -16 54 0 16 17 15
17 -14 11 -46 -9 -50 11 -10 47 43 37 54 81 32 132 -29 71 -113 97 -177 54z
m105 -1 c44 -18 66 -52 66 -101 -1 -43 -11 -61 -50 -88 -41 -28 -87 -22 -126
17 -57 57 -43 140 30 172 39 17 40 17 80 0z"/>
<path d="M2730 1100 c0 -5 11 -10 25 -10 l25 0 0 -110 c0 -67 4 -110 10 -110
6 0 10 43 10 110 l0 110 25 0 c14 0 25 5 25 10 0 6 -27 10 -60 10 -33 0 -60
-4 -60 -10z"/>
<path d="M2997 1103 c-4 -3 -7 -57 -7 -120 l0 -113 63 2 62 2 -52 3 -53 4 0
49 0 49 53 4 52 3 -52 2 -53 2 0 50 0 50 50 0 c28 0 50 5 50 10 0 11 -103 14
-113 3z"/>
<path d="M3334 1101 c-11 -5 -33 -23 -47 -41 -45 -53 -31 -135 29 -175 31 -20
117 -17 137 5 10 10 7 11 -13 5 -83 -24 -132 -8 -156 52 -30 71 19 146 95 146
23 0 48 -6 56 -13 9 -7 18 -11 20 -8 3 3 -1 11 -9 17 -20 17 -85 23 -112 12z"/>
<path d="M3600 1100 c0 -5 11 -10 25 -10 l25 0 0 -110 c0 -67 4 -110 10 -110
6 0 10 43 10 110 l0 110 25 0 c14 0 25 5 25 10 0 6 -27 10 -60 10 -33 0 -60
-4 -60 -10z"/>
<path d="M4178 1104 c-12 -11 -10 -234 2 -234 6 0 10 18 10 40 0 33 3 40 20
40 12 0 30 -16 46 -40 15 -22 31 -40 35 -40 5 0 -3 18 -17 40 l-27 40 27 21
c33 26 37 86 7 113 -21 19 -91 33 -103 20z m94 -31 c41 -37 10 -103 -49 -103
l-33 0 0 60 0 60 32 0 c17 0 40 -7 50 -17z"/>
<path d="M1353 1068 c-6 -18 -24 -70 -41 -115 -17 -46 -27 -83 -22 -83 5 0 15
19 23 43 13 41 15 42 57 42 42 0 44 -1 58 -42 7 -24 17 -43 22 -43 5 0 -5 37
-22 83 -17 45 -35 97 -41 115 -6 17 -13 32 -17 32 -4 0 -11 -15 -17 -32z m35
-47 c16 -52 16 -51 -18 -51 -16 0 -30 3 -30 6 0 17 24 84 30 84 4 0 12 -17 18
-39z"/>
<path d="M2262 1009 c-2 -88 0 -97 21 -117 31 -29 77 -29 105 1 20 21 22 33
20 118 l-2 94 -3 -90 c-3 -75 -7 -93 -25 -112 -25 -26 -55 -29 -84 -9 -16 12
-20 31 -25 113 l-5 98 -2 -96z"/>
<path d="M2574 985 c0 -66 1 -92 3 -57 2 34 2 88 0 120 -2 31 -3 3 -3 -63z"/>
<path d="M3862 1004 c3 -86 5 -98 27 -115 32 -26 77 -24 106 6 23 22 25 31 23
117 l-2 93 -5 -93 c-5 -83 -9 -96 -30 -113 -30 -24 -56 -24 -81 1 -17 17 -20
33 -20 110 0 59 -4 90 -11 90 -7 0 -10 -31 -7 -96z"/>
<path d="M4510 1099 c0 -3 -18 -56 -40 -117 -22 -62 -36 -112 -32 -112 4 0 14
19 22 43 14 39 18 42 56 45 40 3 41 2 59 -43 9 -25 19 -44 22 -41 6 6 -65 206
-78 221 -5 5 -9 7 -9 4z m25 -75 c21 -50 19 -54 -15 -54 -19 0 -30 5 -30 14 0
16 20 76 26 76 2 0 11 -16 19 -36z"/>
</g>
</svg>
